<!DOCTYPE svg PUBLIC "-//W3C//DTD SVG 20010904//EN" "http://www.w3.org/TR/2001/REC-SVG-20010904/DTD/svg10.dtd">
<svg version="1.0" xmlns="http://www.w3.org/2000/svg" width="950px" height="244px" viewBox="0 0 9500 2440" preserveAspectRatio="xMidYMid meet">
<g id="layer101" fill="#ffffff" stroke="none">
 <path d="M890 2230 l0 -210 25 0 c17 0 25 6 25 17 0 14 2 14 21 -3 15 -14 36 -19 74 -19 45 0 58 4 83 28 69 66 61 215 -14 264 -33 21 -105 21 -138 -1 l-26 -16 0 75 c0 73 -1 75 -25 75 l-25 0 0 -210z m187 35 c28 -20 47 -77 39 -120 -17 -87 -98 -116 -151 -53 -24 28 -27 39 -23 85 8 88 73 131 135 88z"/>
 <path d="M3870 2230 c0 -203 1 -210 20 -210 14 0 20 7 20 21 0 19 1 19 17 4 56 -57 160 -39 198 34 20 39 19 134 -1 177 -29 61 -122 87 -179 50 l-25 -16 0 75 c0 73 -1 75 -25 75 l-25 0 0 -210z m194 25 c30 -32 39 -77 26 -126 -19 -71 -98 -94 -145 -43 -36 39 -35 120 1 163 34 40 84 43 118 6z"/>
 <path d="M6630 2230 l0 -210 25 0 c17 0 25 6 25 17 0 14 2 14 21 -3 15 -14 36 -19 74 -19 45 0 58 4 83 28 69 66 61 215 -14 264 -33 21 -105 21 -138 -1 l-26 -16 0 75 c0 73 -1 75 -25 75 l-25 0 0 -210z m187 35 c28 -20 47 -77 39 -120 -17 -87 -98 -116 -151 -53 -24 28 -27 39 -23 85 8 88 73 131 135 88z"/>
 <path d="M373 2319 c-91 -26 -81 -152 15 -179 20 -5 54 -10 75 -10 29 0 37 -4 37 -18 0 -49 -56 -69 -120 -42 -27 11 -33 11 -41 -1 -13 -21 -6 -31 32 -45 44 -16 78 -17 118 -3 50 17 61 51 61 184 0 108 -1 115 -20 115 -13 0 -20 -7 -20 -20 0 -20 0 -20 -27 -1 -36 25 -70 31 -110 20z m83 -47 c20 -14 44 -57 44 -79 0 -20 -5 -23 -34 -23 -40 0 -87 16 -98 33 -12 18 -9 52 4 65 13 13 67 16 84 4z"/>
 <path d="M664 2319 c-17 -5 -38 -17 -48 -27 -14 -17 -15 -21 -2 -31 12 -10 20 -10 38 3 45 32 118 14 118 -28 0 -30 -19 -45 -64 -53 -26 -4 -36 -11 -36 -24 0 -15 7 -19 33 -19 39 0 57 -15 57 -47 0 -35 -43 -49 -92 -29 -35 13 -39 13 -48 -4 -8 -15 -4 -21 24 -34 59 -28 144 -12 160 29 11 29 6 68 -10 86 -14 16 -14 19 5 38 25 25 28 77 6 108 -9 12 -32 27 -53 33 -42 11 -46 11 -88 -1z"/>
 <path d="M1273 2319 c-91 -26 -81 -152 15 -179 20 -5 54 -10 75 -10 29 0 37 -4 37 -18 0 -49 -56 -69 -120 -42 -27 11 -33 11 -41 -1 -13 -21 -6 -31 32 -45 44 -16 78 -17 118 -3 50 17 61 51 61 184 0 108 -1 115 -20 115 -13 0 -20 -7 -20 -20 0 -20 0 -20 -27 -1 -36 25 -70 31 -110 20z m83 -47 c20 -14 44 -57 44 -79 0 -20 -5 -23 -34 -23 -40 0 -87 16 -98 33 -12 18 -9 52 4 65 13 13 67 16 84 4z"/>
 <path d="M1623 2323 c-92 -18 -131 -197 -67 -309 19 -33 40 -50 104 -84 45 -23 88 -39 96 -36 31 12 7 38 -66 74 -51 25 -82 48 -97 71 -30 45 -29 57 3 32 33 -26 118 -29 152 -5 51 35 67 124 35 191 -25 53 -90 80 -160 66z m102 -68 c19 -18 25 -35 25 -70 0 -58 -32 -95 -82 -95 -65 0 -105 58 -86 125 17 65 96 87 143 40z"/>
 <path d="M1971 2320 c-135 -31 -163 -198 -47 -284 20 -16 42 -21 86 -21 63 0 95 16 134 69 31 40 29 130 -2 174 -38 52 -104 77 -171 62z m110 -68 c63 -57 45 -154 -35 -187 -44 -19 -81 -8 -117 33 -28 31 -31 40 -26 81 7 61 50 101 107 101 29 0 48 -7 71 -28z"/>
 <path d="M2840 2324 c-65 -22 -89 -65 -69 -122 14 -41 55 -63 131 -69 60 -6 65 -11 47 -44 -17 -32 -54 -41 -102 -24 -44 15 -64 8 -54 -19 8 -20 83 -39 125 -32 72 11 92 55 92 201 l0 105 -25 0 c-19 0 -25 -5 -25 -22 l0 -21 -22 20 c-24 22 -73 35 -98 27z m97 -83 c13 -19 23 -43 23 -54 0 -18 -5 -19 -55 -15 -82 7 -117 47 -78 90 28 31 82 21 110 -21z"/>
 <path d="M3335 2321 c-46 -11 -81 -38 -99 -76 -23 -47 -20 -123 4 -163 23 -37 88 -72 135 -72 47 0 112 35 135 72 17 26 20 45 18 95 -3 53 -8 67 -33 94 -17 17 -37 34 -45 39 -25 13 -83 18 -115 11z m93 -55 c48 -25 70 -88 48 -139 -38 -92 -164 -93 -202 -1 -40 97 61 188 154 140z"/>
 <path d="M4311 2320 c-135 -31 -163 -198 -47 -284 20 -16 42 -21 86 -21 63 0 95 16 134 69 31 40 29 130 -2 174 -38 52 -104 77 -171 62z m110 -68 c63 -57 45 -154 -35 -187 -44 -19 -81 -8 -117 33 -28 31 -31 40 -26 81 7 61 50 101 107 101 29 0 48 -7 71 -28z"/>
 <path d="M4675 2321 c-79 -19 -115 -66 -115 -151 0 -71 26 -115 83 -140 52 -24 85 -25 137 -4 40 16 47 28 31 53 -7 11 -13 10 -34 -4 -87 -56 -194 24 -167 125 20 73 114 106 172 60 25 -19 48 -12 48 15 0 29 -100 59 -155 46z"/>
 <path d="M5290 2318 c-74 -21 -118 -93 -106 -175 15 -108 125 -167 213 -113 38 23 48 41 58 98 l7 42 -116 0 c-111 0 -116 1 -116 21 0 12 15 36 34 55 39 39 86 45 138 18 25 -13 32 -14 39 -2 14 21 11 27 -18 41 -41 21 -93 27 -133 15z m120 -199 c0 -20 -58 -69 -83 -69 -27 0 -71 31 -87 61 -10 18 -6 19 80 19 58 0 90 -4 90 -11z"/>
 <path d="M7073 2320 c-76 -18 -117 -72 -117 -155 -1 -97 65 -160 157 -152 27 2 56 12 68 23 26 23 49 74 49 109 l0 25 -115 0 c-74 0 -115 4 -115 10 0 21 30 69 52 84 29 20 81 20 120 0 33 -17 55 -7 45 20 -11 29 -92 49 -144 36z m107 -195 c0 -4 -7 -19 -15 -34 -25 -49 -77 -55 -124 -15 -53 44 -42 54 54 54 47 0 85 -2 85 -5z"/>
 <path d="M7855 2321 c-71 -17 -115 -75 -115 -151 0 -112 88 -182 191 -151 48 15 79 59 79 114 l0 37 -110 0 c-119 0 -122 2 -98 55 23 51 109 72 156 39 18 -12 26 -13 37 -4 22 18 19 28 -12 43 -38 19 -92 26 -128 18z m105 -210 c0 -23 -45 -61 -72 -61 -31 0 -73 27 -86 54 l-12 26 85 0 c77 0 85 -2 85 -19z"/>
 <path d="M0 2110 l0 -210 85 0 c128 0 182 30 192 107 6 49 -16 106 -52 129 -16 11 -54 19 -101 22 l-74 5 0 78 c0 78 0 79 -25 79 l-25 0 0 -210z m205 -25 c33 -33 34 -83 1 -114 -19 -18 -40 -24 -90 -28 l-66 -6 0 87 0 86 65 0 c57 0 69 -3 90 -25z"/>
 <path d="M2300 2190 l0 -130 -55 0 c-48 0 -55 -2 -55 -20 0 -19 7 -20 130 -20 123 0 130 1 130 20 0 18 -7 20 -55 20 l-55 0 0 130 c0 123 -1 130 -20 130 -19 0 -20 -7 -20 -130z"/>
 <path d="M2500 2170 l0 -150 25 0 c24 0 25 3 25 60 0 53 2 60 20 60 13 0 35 -21 63 -59 33 -48 48 -60 70 -60 15 -1 27 2 27 5 0 3 -20 32 -45 64 -25 32 -45 63 -45 69 0 6 23 41 50 79 28 38 50 72 50 75 0 4 -11 7 -25 7 -19 0 -36 -16 -76 -70 -32 -45 -58 -70 -70 -70 -17 0 -19 8 -19 70 0 68 -1 70 -25 70 l-25 0 0 -150z"/>
 <path d="M3660 2190 l0 -130 -55 0 c-48 0 -55 -2 -55 -20 0 -19 7 -20 135 -20 128 0 135 1 135 20 0 18 -7 20 -55 20 l-55 0 0 130 0 130 -25 0 -25 0 0 -130z"/>
 <path d="M4860 2300 c0 -10 9 -24 19 -29 27 -15 41 -63 48 -163 l6 -88 88 0 89 0 0 150 c0 143 -1 150 -20 150 -19 0 -20 -7 -20 -130 l0 -130 -49 0 -48 0 -5 83 c-5 93 -26 148 -64 166 -35 16 -44 14 -44 -9z"/>
 <path d="M5520 2171 l0 -151 76 0 c72 0 111 10 126 34 12 17 9 81 -3 93 -9 9 -6 19 10 39 28 35 27 66 -3 101 -23 26 -30 28 -115 31 l-91 4 0 -151z m164 90 c36 -40 -2 -81 -76 -81 l-38 0 0 50 0 50 48 0 c36 0 54 -5 66 -19z m-31 -120 c30 -12 40 -36 27 -62 -8 -15 -22 -19 -60 -19 l-50 0 0 45 c0 43 1 45 29 45 16 0 41 -4 54 -9z"/>
 <path d="M5820 2171 c0 -144 1 -151 20 -151 18 0 20 7 20 55 l0 55 56 0 c48 0 59 4 85 29 37 38 39 88 5 128 -22 25 -31 28 -105 31 l-81 4 0 -151z m142 92 c10 -9 18 -26 18 -39 0 -35 -26 -54 -76 -54 l-44 0 0 55 0 55 42 0 c24 0 49 -7 60 -17z"/>
 <path d="M6070 2170 l0 -150 25 0 25 0 0 150 0 150 -25 0 -25 0 0 -150z"/>
 <path d="M6170 2314 c0 -3 23 -39 51 -79 l51 -73 -46 -65 c-25 -35 -46 -67 -46 -71 0 -3 13 -6 28 -6 23 0 33 9 57 50 17 27 33 50 36 50 4 0 21 -22 39 -50 27 -41 37 -50 61 -50 l30 0 -41 60 c-22 33 -43 66 -46 74 -3 8 13 42 35 75 56 82 59 91 28 91 -19 0 -33 -13 -64 -61 l-40 -60 -39 60 c-32 50 -44 61 -66 61 -16 0 -28 -3 -28 -6z"/>
 <path d="M7300 2170 c0 -143 1 -150 20 -150 19 0 20 7 20 130 l0 130 60 0 60 0 0 -130 0 -130 25 0 25 0 0 130 0 130 55 0 55 0 0 -130 0 -130 25 0 25 0 0 150 0 150 -185 0 -185 0 0 -150z"/>
 <path d="M8080 2170 l0 -150 25 0 c24 0 25 3 25 60 l0 60 80 0 80 0 0 -60 c0 -57 1 -60 25 -60 l25 0 0 150 0 150 -25 0 c-24 0 -25 -2 -25 -65 l0 -65 -80 0 -80 0 0 65 c0 63 -1 65 -25 65 l-25 0 0 -150z"/>
 <path d="M8430 2170 c0 -143 1 -150 20 -150 19 0 20 7 20 112 l0 112 83 -112 c61 -83 88 -111 105 -112 22 0 22 1 22 150 0 143 -1 150 -20 150 -18 0 -20 -8 -22 -110 l-3 -111 -83 111 c-56 75 -88 110 -102 110 -19 0 -20 -7 -20 -150z"/>
 <path d="M8770 2170 l0 -150 25 0 c24 0 24 1 27 106 l3 105 78 -105 c62 -83 84 -106 103 -106 l24 0 0 150 0 150 -25 0 c-24 0 -24 -1 -27 -107 l-3 -107 -80 107 c-60 82 -85 107 -102 107 -23 0 -23 0 -23 -150z"/>
 <path d="M8847 1970 c-33 -26 -38 -70 -7 -70 11 0 20 6 20 14 0 7 7 19 15 26 19 16 65 -2 65 -25 0 -8 9 -15 20 -15 14 0 20 7 20 23 0 55 -85 85 -133 47z"/>
 <path d="M1471 1455 c-70 -20 -111 -46 -160 -101 -50 -57 -71 -119 -71 -208 0 -117 65 -217 177 -274 86 -44 267 -82 390 -82 49 0 53 -11 27 -61 -40 -79 -183 -78 -338 1 l-76 39 -61 -121 c-33 -66 -58 -127 -55 -135 8 -19 156 -87 236 -107 91 -24 233 -31 314 -17 145 25 258 107 312 224 l29 62 3 383 3 382 -161 0 -160 0 0 -51 0 -51 -37 32 c-20 18 -65 46 -100 62 -78 37 -189 46 -272 23z m280 -275 c50 -26 99 -100 99 -148 l0 -35 -68 6 c-119 10 -192 54 -192 116 1 71 81 101 161 61z"/>
 <path d="M3958 1460 c-233 -42 -399 -185 -453 -391 -8 -30 -15 -92 -15 -139 0 -159 46 -276 151 -381 177 -178 480 -221 727 -102 136 64 249 202 281 343 16 67 13 218 -4 285 -46 174 -196 319 -385 371 -67 18 -238 26 -302 14z m200 -306 c87 -36 141 -120 142 -219 0 -83 -15 -130 -58 -177 -94 -104 -244 -104 -333 1 -80 93 -81 245 -1 333 66 73 165 98 250 62z"/>
 <path d="M5245 1463 c-209 -28 -379 -165 -447 -361 -33 -96 -33 -258 0 -354 77 -223 261 -353 517 -365 118 -6 217 12 310 55 62 29 135 86 135 104 0 23 -143 238 -154 231 -6 -4 -25 -17 -43 -31 -86 -64 -209 -80 -299 -38 -57 27 -96 71 -119 135 -41 118 16 255 129 307 95 44 206 25 328 -56 74 -49 64 -56 144 102 l54 107 -43 35 c-122 100 -333 153 -512 129z"/>
 <path d="M6281 1455 c-195 -44 -334 -166 -399 -349 -33 -91 -36 -256 -8 -351 41 -139 142 -263 259 -319 116 -55 269 -71 395 -41 86 20 136 48 202 111 99 94 140 208 140 386 l0 108 -325 0 c-179 0 -325 2 -325 5 0 15 41 83 62 102 89 83 230 82 386 -3 35 -19 67 -32 72 -29 5 3 36 58 70 121 71 136 72 130 -38 188 -140 73 -350 103 -491 71z m235 -697 c-14 -69 -63 -111 -131 -111 -55 0 -104 29 -132 79 -37 65 -39 64 123 64 l147 0 -7 -32z"/>
 <path d="M10 720 l0 -720 180 0 180 0 0 280 0 281 68 -3 67 -3 148 -277 149 -278 194 0 c107 0 194 2 194 4 0 2 -86 156 -192 342 -105 186 -191 344 -191 349 0 7 339 632 400 738 2 4 -88 7 -200 7 l-204 0 -149 -287 -149 -288 -68 -3 -67 -3 0 291 0 290 -180 0 -180 0 0 -720z"/>
 <path d="M2420 920 l0 -520 288 0 c385 0 468 14 551 93 51 49 71 100 71 188 0 61 -5 85 -26 127 -14 29 -38 62 -52 73 -17 13 -22 23 -15 26 64 23 116 89 134 169 27 118 -24 243 -121 302 -93 55 -98 56 -477 59 l-353 4 0 -521z m550 285 c35 -18 50 -43 50 -85 0 -74 -43 -100 -165 -100 l-85 0 0 100 0 100 85 0 c57 0 96 -5 115 -15z m-19 -424 c38 -38 40 -91 4 -126 -22 -22 -32 -25 -105 -25 l-80 0 0 90 0 90 76 0 c70 0 78 -2 105 -29z"/>
 <path d="M7004 1393 c3 -27 24 -241 46 -478 22 -236 42 -449 46 -472 l5 -43 204 0 203 0 93 279 c52 154 95 278 98 276 2 -3 46 -127 96 -277 l92 -273 204 0 204 0 47 490 c26 270 47 502 47 518 l1 27 -169 0 -168 0 -7 -77 c-3 -43 -9 -183 -13 -311 l-6 -233 -92 243 -92 243 -145 3 -144 3 -74 -198 c-83 -223 -124 -322 -115 -279 5 26 -6 322 -21 524 l-6 82 -170 0 -170 0 6 -47z"/>
 <path d="M8570 921 l0 -521 180 0 180 0 0 158 0 159 138 6 c232 11 331 57 394 184 32 65 33 72 33 183 0 108 -2 119 -30 175 -21 41 -46 71 -80 97 -93 71 -101 72 -477 76 l-338 3 0 -520z m518 269 c67 -41 78 -131 23 -193 -27 -29 -34 -32 -105 -35 l-76 -4 0 126 0 126 63 0 c45 0 71 -6 95 -20z"/>
 </g>

</svg>